<svg xmlns="http://www.w3.org/2000/svg" viewBox="0 0 737.39 76"><defs><style>.cls-1{fill:#8366ff;}.cls-2{fill:#2fe5c7;}</style></defs><g id="Layer_2" data-name="Layer 2"><g id="Layer_1-2" data-name="Layer 1"><path class="cls-1" d="M10.89,65.22H41.31V75.9H0V1.22H10.89Z"/><path class="cls-1" d="M97,1.22h10.68V51.08a23.62,23.62,0,0,1-2,9.66,24.16,24.16,0,0,1-5.44,7.78,26.17,26.17,0,0,1-8,5.24,25.08,25.08,0,0,1-9.87,1.94,24.49,24.49,0,0,1-9.72-1.94,25.54,25.54,0,0,1-7.93-5.24,23.58,23.58,0,0,1-5.34-7.78,24.09,24.09,0,0,1-1.94-9.66V1.22H68.07V51.08a13.78,13.78,0,0,0,1.12,5.54,14.86,14.86,0,0,0,3,4.58,13.74,13.74,0,0,0,4.58,3.1,14.09,14.09,0,0,0,5.59,1.12A14.47,14.47,0,0,0,92.74,61.2a14.66,14.66,0,0,0,3.1-4.58A13.78,13.78,0,0,0,97,51.08Z"/><path class="cls-1" d="M123.72,1.22h10.89V75.8H123.72Z"/><path class="cls-1" d="M191.58,38.66a8.13,8.13,0,0,1,1.32,1.17c.41.44.78.87,1.12,1.27a24.24,24.24,0,0,1,3.67,6.47A20.74,20.74,0,0,1,199,54.94a8.55,8.55,0,0,1-.1,1.43,19.66,19.66,0,0,1-3.46,10.27,20.87,20.87,0,0,1-7.33,6.77,20.15,20.15,0,0,1-10,2.49h-6.71a20.13,20.13,0,0,1-10-2.49,20.87,20.87,0,0,1-7.33-6.77,25.79,25.79,0,0,1-1.63-2.85L162,56.47a10.24,10.24,0,0,0,1.27,3.61,11.77,11.77,0,0,0,2.39,3,10.72,10.72,0,0,0,7.12,2.7h4.07a10.53,10.53,0,0,0,7.22-2.7,10.86,10.86,0,0,0,3.67-6.66,5.64,5.64,0,0,1,.05-.82,7.34,7.34,0,0,0,0-.81,10.52,10.52,0,0,0-.82-4.17,11.06,11.06,0,0,0-2.23-3.41,11.59,11.59,0,0,0-3.36-2.39,10.67,10.67,0,0,0-4.07-1h-6.21a19.59,19.59,0,0,1-7.07-1.48,21,21,0,0,1-5.95-3.71,10.28,10.28,0,0,1-2.44-2.44A23.92,23.92,0,0,1,152,29.66a20.79,20.79,0,0,1-1.32-7.38V20.86a21.28,21.28,0,0,1,3.56-10.28,20.84,20.84,0,0,1,7.33-6.76,20.05,20.05,0,0,1,10-2.5h6.61a20.35,20.35,0,0,1,10,2.5,20.74,20.74,0,0,1,7.38,6.76l.66,1.12.66,1.12L187.61,20a11.33,11.33,0,0,0-3.86-6.1,10.38,10.38,0,0,0-6.82-2.44h-4.07a11.1,11.1,0,0,0-3.92.71,10.75,10.75,0,0,0-3.3,2,11.5,11.5,0,0,0-2.39,3A10.83,10.83,0,0,0,162,20.86a3.22,3.22,0,0,0-.11.81v.82a10.52,10.52,0,0,0,.82,4.17,10.85,10.85,0,0,0,2.24,3.41,11.28,11.28,0,0,0,3.35,2.39,10.48,10.48,0,0,0,4.07,1h6.21A19.59,19.59,0,0,1,185.63,35,21,21,0,0,1,191.58,38.66Z"/><path class="cls-2" d="M258.38,65.22h30.43V75.9H247.5V1.22h10.88Z"/><path class="cls-2" d="M315.67,64.91h33.16V75.6H304.88V1.32h43.24V11.8H315.67V37h29.2V47.21h-29.2Z"/><path class="cls-2" d="M364.91,75.7,395.33,1.12,425.75,75.7H414.66l-2.24-5.9H378.34L376,75.7ZM382,60.23h26.66L395.33,26.05Z"/><path class="cls-2" d="M452.1,76H441.83V0l48.22,57.69V1.32h10.28V76h-10L452.1,28.9Z"/><path class="cls-2" d="M542.45,1.22a33.89,33.89,0,0,1,14.09,3,36.47,36.47,0,0,1,11.45,8,38.61,38.61,0,0,1,7.73,11.85,37,37,0,0,1,2.85,14.5,38.18,38.18,0,0,1-2.75,14.5,36.94,36.94,0,0,1-7.58,11.8,36.09,36.09,0,0,1-11.44,8,34.8,34.8,0,0,1-14.35,3H516.4V1.22Zm-1.22,65A24.72,24.72,0,0,0,551.71,64a25.33,25.33,0,0,0,8.24-6,27.25,27.25,0,0,0,5.39-8.82,29.72,29.72,0,0,0,1.93-10.75,29.72,29.72,0,0,0-1.93-10.75,27,27,0,0,0-5.44-8.82,26,26,0,0,0-8.29-6,24.65,24.65,0,0,0-10.38-2.2H527.29V66.23Z"/><path class="cls-2" d="M645.92,35a26.25,26.25,0,0,1-4.22,8.24,25.91,25.91,0,0,1-6.87,6.21,1.17,1.17,0,0,1-.51.3,1.21,1.21,0,0,0-.5.31L646.94,75.9h-11.5L624,53.42c-.82.13-1.63.23-2.44.3s-1.7.1-2.65.1H605.53V75.9H594.64V1.12h24.22a30.55,30.55,0,0,1,16,4.37A25.38,25.38,0,0,1,645.92,20c.07.34.14.65.21.92a5.34,5.34,0,0,0,.3.91v.51a4,4,0,0,1,.26,1.12c0,.41.08.82.15,1.22v.11a7.09,7.09,0,0,1,.1,1.22V28.9a7.26,7.26,0,0,1-.1,1.22v.2q-.11.62-.15,1.17a5.39,5.39,0,0,1-.26,1.17v.41A9.29,9.29,0,0,0,645.92,35Zm-25.74,9.26a13.4,13.4,0,0,0,6.16-1.43,16,16,0,0,0,4.83-3.77,19.28,19.28,0,0,0,3.26-5.36,16.64,16.64,0,0,0,0-12.51,18.14,18.14,0,0,0-3.26-5.35,16.38,16.38,0,0,0-4.83-3.73,13.4,13.4,0,0,0-6.16-1.43H605.63V44.26Z"/><path class="cls-2" d="M700.15.92a36.15,36.15,0,0,1,14.55,3,37.28,37.28,0,0,1,11.86,8,37.74,37.74,0,0,1,7.93,12,37.29,37.29,0,0,1,2.9,14.7,36.63,36.63,0,0,1-2.9,14.55A37.69,37.69,0,0,1,726.56,65a37.14,37.14,0,0,1-11.86,8,37.23,37.23,0,0,1-29.05,0,37.36,37.36,0,0,1-19.73-19.94A36.63,36.63,0,0,1,663,38.56,37.37,37.37,0,0,1,685.65,3.87,35.84,35.84,0,0,1,700.15.92Zm0,64.6a24.18,24.18,0,0,0,10-2.13,26.19,26.19,0,0,0,8.24-5.77A27.37,27.37,0,0,0,724,49.05a27.09,27.09,0,0,0,2-10.49A27.45,27.45,0,0,0,724,28a27.84,27.84,0,0,0-5.54-8.67,26,26,0,0,0-8.24-5.83,24.33,24.33,0,0,0-10-2.12,23.92,23.92,0,0,0-10,2.12A26.17,26.17,0,0,0,682,19.35a28,28,0,0,0-7.58,19.21A27.53,27.53,0,0,0,682,57.62a26.32,26.32,0,0,0,8.19,5.77A23.77,23.77,0,0,0,700.15,65.52Z"/></g></g></svg>